<svg id="Layer_1" data-name="Layer 1" xmlns="http://www.w3.org/2000/svg" viewBox="0 0 515.82 520.03"><defs><style>.cls-1{fill:#eb1010;}</style></defs><path class="cls-1" d="M638.59,403.53a111.33,111.33,0,0,1,18.88.9l-4-.54a121.86,121.86,0,0,1,30.34,8.4l-3.58-1.51A135.22,135.22,0,0,1,709.59,428l-3-2.35a151.7,151.7,0,0,1,26.78,27.05l-2.34-3a187.44,187.44,0,0,1,23.64,41l-1.51-3.58A199.14,199.14,0,0,1,767,536.86l-.54-4a156.77,156.77,0,0,1,.21,41.51l.53-4a126.71,126.71,0,0,1-8.4,31.13l1.51-3.58c-8.49,20-21.94,37.53-35.14,54.65l2.35-3q-16.34,21.13-34,41.23c-11,12.59-22.33,25.14-35.57,35.48l3-2.35a121.51,121.51,0,0,1-26.58,15.57L638,738a164.62,164.62,0,0,1-41.74,10.88l4-.53c-17,2.24-34.12,2.55-51.22,2.11a527.81,527.81,0,0,1-56.72-4.54l4,.54q-24.81-3.37-49.21-9c-15.23-3.55-30.38-7.7-44.83-13.77l3.59,1.51a140.08,140.08,0,0,1-30.65-17.7l3,2.34a149.77,149.77,0,0,1-26.43-26.7l2.34,3a182.46,182.46,0,0,1-23-39.84l1.51,3.58c-9-21.56-14.37-44.43-17.5-67.55l.54,4c-4-30.25-5.06-61.14-1-91.44l-.54,4A219.52,219.52,0,0,1,329,443.37L327.49,447a170.65,170.65,0,0,1,21.74-37.19l-2.35,3a155,155,0,0,1,27.42-27.53l-3,2.34a133.63,133.63,0,0,1,28.9-17l-3.58,1.51a122.42,122.42,0,0,1,30.53-8.29l-4,.54c19-2.53,38.14-1.43,57.22-2,20.32-.58,40.52-3.58,60.46-7.37,10.49-2,20.91-4.52,31.49-6l-4,.53a74,74,0,0,1,19-.29l-4-.53a46.75,46.75,0,0,1,10.77,2.9l-3.58-1.52a89.43,89.43,0,0,1,14.79,8.51q7.9,5.35,15.78,10.73l31.44,21.37c6.51,4.43,16.92,1.45,20.52-5.38,4-7.6,1.57-15.8-5.38-20.52l-28-19c-8.87-6-17.58-12.53-26.84-18a65.57,65.57,0,0,0-35-9.1c-11.51.27-22.89,2.87-34.13,5.15-12.28,2.49-24.61,4.78-37,6.45l4-.53A309.5,309.5,0,0,1,474,332.54c-12,.15-24-.13-36,.49-12.17.64-24.48,2.12-36.21,5.5a139.58,139.58,0,0,0-28.41,11.84c-36.47,20.08-62.54,55.11-76.74,93.69-8.08,21.94-12.12,45.27-13.75,68.54a362.58,362.58,0,0,0,2,67.58c2.82,23.94,7.34,47.72,15.88,70.33,8.06,21.32,18.95,40.93,33.54,58.48a148.91,148.91,0,0,0,50.12,39.25c21.84,10.36,45.38,16.4,69,21.21a555.93,555.93,0,0,0,74.93,10c22.52,1.46,45.37,1.91,67.83-.68,23.1-2.67,45.83-8.15,66.18-19.78s36.44-29,51.74-46.36q24.55-27.93,46.67-57.88c14-18.85,26.52-38.86,32.43-61.83,11.56-45,.9-94.06-20.75-134.31-21-39.09-56.58-71.57-100.57-81.78a126.78,126.78,0,0,0-33.33-3.35c-7.83.31-15.37,6.69-15,15,.35,7.87,6.6,15.33,15,15Z" transform="translate(-282.15 -260.65)"/><path class="cls-1" d="M672.79,410.19a327.57,327.57,0,0,1,25.26-38l-2.34,3a328.3,328.3,0,0,1,23.7-27.39l-25.07-6.62q7.06,27.45,13.21,55.11t11.37,55.53q2.93,15.67,5.57,31.4a16.8,16.8,0,0,0,6.9,9,15.29,15.29,0,0,0,11.55,1.52c3.63-1.18,7.14-3.43,9-6.9l1.51-3.58a15,15,0,0,0,0-8q-4.7-27.94-10.31-55.72t-12.18-55.35q-3.67-15.53-7.66-31a15,15,0,0,0-25.07-6.62,345.43,345.43,0,0,0-41.92,52.89q-4.92,7.6-9.39,15.49a15.59,15.59,0,0,0-1.51,11.56,15.35,15.35,0,0,0,6.89,9c3.48,1.84,7.7,2.76,11.56,1.51a15.51,15.51,0,0,0,9-6.89Z" transform="translate(-282.15 -260.65)"/><path class="cls-1" d="M520.29,389.15l-36.18-56.06c-11.52-17.84-23-36.13-39.81-49.54-9.72-7.76-20.11-14.39-30.72-20.84a14.91,14.91,0,0,0-7.57-2,16.7,16.7,0,0,0-10.61,4.39,14.94,14.94,0,0,0-3.85,6.62Q385,302.32,378,332.83t-14.66,60.65q-4.31,17.1-8.8,34.15A15.63,15.63,0,0,0,356,439.19a15.32,15.32,0,0,0,9,6.9c3.84.87,8.15.68,11.56-1.52a15.51,15.51,0,0,0,6.89-9q8-30.28,15.37-60.73T413,314.11q3.84-17.21,7.49-34.46l-22,9c8.91,5.43,17.83,10.88,26.11,17.26l-3-2.34a117.12,117.12,0,0,1,20.77,20.85l-2.34-3c7.54,9.76,14,20.3,20.69,30.65l21.6,33.46,12.16,18.83a15.75,15.75,0,0,0,9,6.89,15.35,15.35,0,0,0,11.56-1.51c3.2-2.07,6-5.14,6.89-9s.69-8.16-1.51-11.56Z" transform="translate(-282.15 -260.65)"/><path class="cls-1" d="M550.86,621c20.53-24.77,53.79-31.51,68.38-63.09-7.79-1.11-15.65-2.22-23.52-1.76-24.41,1.42-49.7-1.33-74.12-.11,5.31,21.78,14.12,50.56,26,69.57" transform="translate(-282.15 -260.65)"/><path class="cls-1" d="M727.42,584.58a139.46,139.46,0,0,0-.58-31.83c-1.53-11.47-3.78-22.85-8.05-33.66-2.2-5.56-4.59-11.13-8.11-16a60.61,60.61,0,0,0-6.58-8,54.53,54.53,0,0,0-7.9-6.31c-11-7.33-25.06-8.41-37.36-4-12,4.34-23.23,11.12-33.53,18.57a11.36,11.36,0,0,0-4.21,3.87,11.22,11.22,0,0,0-2.68,5.1,15.3,15.3,0,0,0,1.51,11.56c2.06,3.2,5.14,6,9,6.89s8.34.82,11.56-1.51c8.53-6.17,17.71-11.95,27.43-16.07l-3.59,1.51a41.57,41.57,0,0,1,10.3-2.95l-4,.54a26.92,26.92,0,0,1,6.53-.05l-4-.53a26.12,26.12,0,0,1,6.71,1.85l-3.58-1.52a32.41,32.41,0,0,1,6.7,4l-3-2.34a37.2,37.2,0,0,1,6.42,6.49l-2.35-3a54.34,54.34,0,0,1,6.63,11.65l-1.51-3.59a125.21,125.21,0,0,1,8.25,31.49l-.53-4a138.9,138.9,0,0,1,.58,31.83c-.35,3.61,1.93,8.14,4.4,10.61a15.23,15.23,0,0,0,10.6,4.39c3.88-.17,7.91-1.44,10.61-4.39l2.35-3a14.94,14.94,0,0,0,2-7.58Z" transform="translate(-282.15 -260.65)"/><path class="cls-1" d="M558.35,520.83a168,168,0,0,0-13.94-28.52q-3.75-6-8.07-11.64c-3.48-4.55-6.93-9.37-11.42-13a39.28,39.28,0,0,0-8.55-5.66,51.91,51.91,0,0,0-9.72-3.48,98.54,98.54,0,0,0-10.4-1.6,61.14,61.14,0,0,0-7.52-.5,40.09,40.09,0,0,0-19.66,5.08,40.66,40.66,0,0,0-11.77,10.12,55.94,55.94,0,0,0-5.87,8.56,78.2,78.2,0,0,0-4.51,10.58,130.48,130.48,0,0,0-4.07,15.69A15.93,15.93,0,0,0,444.37,518a15.33,15.33,0,0,0,9,6.9c3.84.87,8.15.68,11.56-1.52,3.18-2,6.07-5.14,6.89-9,1.39-6.45,2.81-12.93,5.35-19L475.62,499a42.4,42.4,0,0,1,5.24-9.18l-2.35,3a33.5,33.5,0,0,1,5.61-5.68l-3,2.35a26.54,26.54,0,0,1,5.47-3.26L483,487.76a23.84,23.84,0,0,1,5.92-1.62l-4,.53a50.41,50.41,0,0,1,12.63.42l-4-.54a44.18,44.18,0,0,1,10.87,2.71l-3.58-1.51A25.86,25.86,0,0,1,506.4,491l-3-2.35a54.66,54.66,0,0,1,9.14,9.89l-2.35-3a147.64,147.64,0,0,1,18.95,32.41l-1.51-3.58c.63,1.5,1.24,3,1.83,4.52a16.71,16.71,0,0,0,6.89,9,15.3,15.3,0,0,0,11.56,1.51c3.63-1.17,7.13-3.42,9-6.89s2.95-7.85,1.51-11.56Z" transform="translate(-282.15 -260.65)"/><path class="cls-1" d="M572.16,635.46q26,7.44,51.25,17.29,7.14,2.79,14.19,5.78L634,657l4.84,2.08a11.35,11.35,0,0,0,5.58,1.78,11.48,11.48,0,0,0,6-.27,15.32,15.32,0,0,0,9-6.9c1.84-3.48,2.76-7.69,1.51-11.55-1.12-3.46-3.4-7.46-6.89-9a611.93,611.93,0,0,0-57.83-21.81q-8-2.54-16-4.84A15.54,15.54,0,0,0,568.57,608a15.31,15.31,0,0,0-6.89,9c-.87,3.84-.68,8.15,1.51,11.56a15.79,15.79,0,0,0,9,6.89Z" transform="translate(-282.15 -260.65)"/><path class="cls-1" d="M576.53,657.93q25,13.16,49.63,26.91,7,3.9,14,7.86a15.64,15.64,0,0,0,11.56,1.51,15.35,15.35,0,0,0,9-6.89c1.84-3.49,2.76-7.7,1.51-11.56a15.53,15.53,0,0,0-6.89-9q-24.57-13.92-49.46-27.25-7.07-3.78-14.15-7.52a15.84,15.84,0,0,0-11.56-1.51,15.29,15.29,0,0,0-9,6.89c-1.84,3.48-2.77,7.7-1.52,11.56,1.18,3.63,3.43,7.14,6.9,9Z" transform="translate(-282.15 -260.65)"/><path class="cls-1" d="M560.79,659.57c15.93,18.36,37.7,30.21,57.81,43.29,5.44,3.54,10.8,7.21,15.94,11.17l-3-2.34a39.3,39.3,0,0,1,6.88,6.12l-2.35-3a11,11,0,0,1,1.36,2.31l-1.51-3.59a9.19,9.19,0,0,1,.39,1.43l-.54-4a6.94,6.94,0,0,1,0,1.51c-.27,3.66,1.87,8.08,4.39,10.6a15.2,15.2,0,0,0,10.61,4.4c3.88-.18,7.9-1.45,10.61-4.4l2.34-3a14.91,14.91,0,0,0,2-7.57c.47-6.27-2.74-11.92-6.68-16.46a40.9,40.9,0,0,0-5.74-5c-5.11-4-10.31-7.83-15.7-11.44-8.84-5.92-18-11.37-26.88-17.2-4.95-3.24-9.82-6.6-14.5-10.22l3,2.35A120,120,0,0,1,582,638.36c-2.41-2.78-7-4.4-10.61-4.4a15.25,15.25,0,0,0-10.6,4.4c-2.63,2.86-4.58,6.61-4.4,10.6l.54,4a15,15,0,0,0,3.86,6.62Z" transform="translate(-282.15 -260.65)"/><path class="cls-1" d="M490.37,572.3q-30.86-.7-61.66-2.34t-61.55-4.22q-17.36-1.46-34.68-3.21a11.49,11.49,0,0,0-5.78,1.29,11.16,11.16,0,0,0-4.82,3.11,15.24,15.24,0,0,0-4.4,10.6c.18,3.88,1.45,7.91,4.4,10.61l3,2.35a15,15,0,0,0,7.57,2q30.69,3.11,61.47,5.28t61.6,3.4q17.4.69,34.82,1.09a15,15,0,0,0,15-15c-.18-3.88-1.45-7.91-4.4-10.61a15.84,15.84,0,0,0-10.6-4.39Z" transform="translate(-282.15 -260.65)"/><path class="cls-1" d="M485.63,613.83q-30.87,3-61.86,4.69t-62.25,1.86q-17.5.12-35-.22a15.39,15.39,0,0,0-10.61,4.4,15.23,15.23,0,0,0-4.39,10.6c.17,3.88,1.44,7.91,4.39,10.61a15.82,15.82,0,0,0,10.61,4.39q31,.58,62-.24t62.21-3.1q17.44-1.26,34.86-3a16.7,16.7,0,0,0,10.61-4.39,15.27,15.27,0,0,0,4.39-10.61c-.17-3.88-1.45-7.9-4.39-10.61-2.77-2.54-6.71-4.78-10.61-4.39Z" transform="translate(-282.15 -260.65)"/><path class="cls-1" d="M481.38,646.72Q440.18,657.55,398,664.4q-11.87,1.92-23.78,3.52l4-.53q-18.54,2.48-37.16,4.19a16.64,16.64,0,0,0-10.6,4.39,15.24,15.24,0,0,0-4.4,10.61c.18,3.88,1.45,7.9,4.4,10.61,2.77,2.54,6.69,4.75,10.6,4.39q30.3-2.77,60.37-7.53,28.43-4.45,56.52-10.76,15.76-3.52,31.38-7.64a15,15,0,0,0,10.48-18.45c-1.18-3.63-3.43-7.13-6.9-9a15.77,15.77,0,0,0-11.56-1.51Z" transform="translate(-282.15 -260.65)"/></svg>