<svg id="Layer_1" data-name="Layer 1" xmlns="http://www.w3.org/2000/svg" viewBox="0 0 1080 1080"><defs><style>.cls-1{fill:red;}.cls-2{fill:#f2f2f2;}.cls-3{fill:#1a1a1a;}.cls-4{fill:none;stroke:#f2f2f2;stroke-miterlimit:10;stroke-width:16px;}</style></defs><circle class="cls-1" cx="540" cy="542.5" r="227.6"/><ellipse class="cls-2" cx="431.69" cy="495.03" rx="96.51" ry="58.2"/><ellipse class="cls-3" cx="431.69" cy="494.78" rx="22.97" ry="57.04"/><ellipse class="cls-2" cx="648.31" cy="495.03" rx="96.51" ry="58.2"/><ellipse class="cls-3" cx="648.31" cy="494.78" rx="22.97" ry="57.04"/><path class="cls-2" d="M544.75,602.46a6.52,6.52,0,0,1-10.49,0l-15.12-20.4L506.49,565a6.52,6.52,0,0,1,5.24-10.41h55.54A6.53,6.53,0,0,1,572.52,565l-12.65,17.07Z"/><path class="cls-4" d="M539.47,600.7a50.82,50.82,0,0,1-100.17.47"/><path class="cls-4" d="M539.83,600.7a50.81,50.81,0,0,0,100.16.47"/></svg>