<svg id="Layer_1" data-name="Layer 1" xmlns="http://www.w3.org/2000/svg" viewBox="0 0 515.77 519.95"><path d="M441.5,373.53c-45.22-1.74-88.42,22.52-115.72,57.63a210.06,210.06,0,0,0-32.24,59.58c-7.64,21.63-11.92,45-11.33,67.94a146.49,146.49,0,0,0,18.93,69,272.62,272.62,0,0,0,18.91,28.17q11.54,15.51,23.71,30.55Q355,700.28,366.85,713.7c7.44,8.43,15,16.8,23.21,24.47a138.59,138.59,0,0,0,60.61,34.5c21.46,6.07,44.15,7.86,66.38,7.93a543.59,543.59,0,0,0,75.19-5.31,483.2,483.2,0,0,0,69.83-14.44,223.93,223.93,0,0,0,34.31-13,149.37,149.37,0,0,0,29.06-18.77c34.45-27.89,54.59-70.4,63.9-113A388.56,388.56,0,0,0,797.77,545a305.89,305.89,0,0,0-5.61-70c-8.32-40.87-28.42-80.35-60.76-107.38-15.91-13.3-34-23.75-54.12-29.34-23.64-6.58-48.28-5.36-72.53-5.73a305.52,305.52,0,0,1-35.38-2.63l4,.53c-11-1.49-22-3.45-32.93-5.63-11.37-2.26-22.72-4.91-34.32-5.77a66.23,66.23,0,0,0-35.58,7.05c-9.4,4.83-18,11.5-26.71,17.43l-31.44,21.38a16,16,0,0,0-6.89,9A15.29,15.29,0,0,0,407,385.4c4.16,6.45,13.58,10.1,20.52,5.38L459,369.41q7.71-5.25,15.42-10.49a90.61,90.61,0,0,1,15.15-8.75l-3.59,1.52a46.83,46.83,0,0,1,10.78-2.9l-4,.53a74.09,74.09,0,0,1,19,.29l-4-.53c9.36,1.28,18.58,3.46,27.84,5.27,9.57,1.87,19.17,3.56,28.83,4.88,10.51,1.44,21,2.63,31.64,3.06,9.57.39,19.14.27,28.71.32A254.09,254.09,0,0,1,657,364.39l-4-.54a122.42,122.42,0,0,1,30.53,8.29l-3.58-1.51a133.4,133.4,0,0,1,28.9,17l-3-2.34a155.27,155.27,0,0,1,27.41,27.53l-2.34-3A170.61,170.61,0,0,1,752.6,447l-1.51-3.59a219.52,219.52,0,0,1,14.82,55.45l-.53-4c4.06,30.3,3,61.19-1,91.44l.53-4c-3.13,23.12-8.46,46-17.49,67.55l1.51-3.58a182.5,182.5,0,0,1-23,39.84l2.34-3a149.44,149.44,0,0,1-26.43,26.7l3-2.34a140,140,0,0,1-30.64,17.7l3.58-1.51c-14.45,6.07-29.6,10.22-44.83,13.77q-24.37,5.7-49.2,9l4-.54a527.81,527.81,0,0,1-56.72,4.54c-17.1.44-34.24.13-51.22-2.11l4,.53A164.44,164.44,0,0,1,442.11,738l3.58,1.51a121.74,121.74,0,0,1-26.58-15.57l3,2.35c-13.24-10.34-24.53-22.89-35.57-35.48q-17.62-20.07-33.95-41.23l2.34,3c-13.2-17.12-26.65-34.62-35.14-54.65l1.51,3.58a126.71,126.71,0,0,1-8.4-31.13l.54,4a156.77,156.77,0,0,1,.2-41.51l-.53,4A199.12,199.12,0,0,1,327,487.1l-1.51,3.58a187.48,187.48,0,0,1,23.65-41l-2.35,3a152,152,0,0,1,26.78-27.05l-3,2.35a135.46,135.46,0,0,1,29.35-17.2l-3.58,1.51a122.09,122.09,0,0,1,30.34-8.4l-4,.54a111.43,111.43,0,0,1,18.88-.9c7.85.31,15.36-7.11,15-15a15.32,15.32,0,0,0-15-15Z" transform="translate(-282.16 -260.65)"/><path d="M433.2,395a345.34,345.34,0,0,0-39.07-55q-5.92-6.86-12.24-13.36a15,15,0,0,0-25.07,6.62q-7.06,27.44-13.21,55.11t-11.36,55.52q-2.94,15.68-5.58,31.4a11.52,11.52,0,0,0-.27,6,11.21,11.21,0,0,0,1.78,5.57,15.32,15.32,0,0,0,9,6.9c3.84.87,8.15.68,11.56-1.52,3.09-2,6.26-5.18,6.89-9q4.69-27.94,10.32-55.73t12.17-55.35q3.69-15.51,7.66-31l-25.07,6.62a330.29,330.29,0,0,1,23.71,27.39l-2.35-3a326.29,326.29,0,0,1,25.26,38,15,15,0,0,0,20.52,5.38c3.2-2.07,6-5.14,6.9-9A15.81,15.81,0,0,0,433.2,395Z" transform="translate(-282.16 -260.65)"/><path d="M585.71,404.29C600,382.17,614.16,360,628.56,337.93c3.68-5.65,7.47-11.24,11.59-16.58l-2.34,3a117.12,117.12,0,0,1,20.77-20.85l-3,2.34c8.27-6.38,17.19-11.83,26.1-17.26l-22-9q6.5,30.63,13.57,61.15t14.67,60.65q4.3,17.12,8.79,34.16a15.48,15.48,0,0,0,6.9,9,15.29,15.29,0,0,0,11.55,1.52c3.63-1.18,7.14-3.43,9-6.9a15.76,15.76,0,0,0,1.51-11.56q-8-30.28-15.37-60.73t-14.16-60.77q-3.84-17.2-7.5-34.46a15.05,15.05,0,0,0-3.86-6.62,16.7,16.7,0,0,0-10.61-4.39,14.94,14.94,0,0,0-7.57,2,292.45,292.45,0,0,0-25,16.44,147.52,147.52,0,0,0-14.05,11.76,115.54,115.54,0,0,0-10,11.2c-7,8.85-13.17,18.18-19.27,27.64l-18,27.81L559.8,389.15a15,15,0,0,0,5.38,20.52c3.49,1.84,7.7,2.76,11.56,1.51a16.26,16.26,0,0,0,9-6.89Z" transform="translate(-282.16 -260.65)"/><path d="M529.23,621c-20.53-24.77-53.78-31.51-68.38-63.09,7.8-1.11,15.66-2.22,23.52-1.76,24.41,1.42,49.71-1.33,74.13-.11-5.32,21.78-14.13,50.56-26,69.57" transform="translate(-282.16 -260.65)"/><path d="M382.67,584.58a138.91,138.91,0,0,1,.59-31.83l-.54,4A124.81,124.81,0,0,1,391,525.25l-1.52,3.59a54.77,54.77,0,0,1,6.63-11.65l-2.34,3a37.15,37.15,0,0,1,6.41-6.49l-3,2.34a32.34,32.34,0,0,1,6.69-4l-3.58,1.52a26.12,26.12,0,0,1,6.71-1.85l-4,.53a26.83,26.83,0,0,1,6.52.05l-4-.54a41.61,41.61,0,0,1,10.29,2.95l-3.58-1.51c9.72,4.12,18.89,9.9,27.42,16.07a11.21,11.21,0,0,0,5.58,1.78,11.48,11.48,0,0,0,6-.27,15.35,15.35,0,0,0,9-6.89c1.83-3.49,2.76-7.7,1.51-11.56l-1.51-3.59a15.18,15.18,0,0,0-5.39-5.38,143.93,143.93,0,0,0-27-15.89,71,71,0,0,0-10.37-3.87,48.41,48.41,0,0,0-10.77-1.53,26.24,26.24,0,0,0-3.66.18,54.53,54.53,0,0,0-6.85,1.08,43.86,43.86,0,0,0-9.37,3.74,50.19,50.19,0,0,0-8.26,5.78,35.32,35.32,0,0,0-4.64,4.51,62.37,62.37,0,0,0-9.77,15.11,132.15,132.15,0,0,0-9.81,33,153,153,0,0,0-1.6,39.06,16.7,16.7,0,0,0,4.39,10.61,15.23,15.23,0,0,0,10.61,4.39c3.88-.17,7.9-1.44,10.61-4.39,2.54-2.77,4.77-6.71,4.39-10.61Z" transform="translate(-282.16 -260.65)"/><path d="M550.67,528.81c.58-1.52,1.19-3,1.82-4.52L551,527.87a147.64,147.64,0,0,1,18.95-32.41l-2.35,3a54.36,54.36,0,0,1,9.15-9.89l-3,2.35a26.17,26.17,0,0,1,5.57-3.21l-3.59,1.51a44.29,44.29,0,0,1,10.87-2.71l-4,.54a50.32,50.32,0,0,1,12.62-.42l-4-.53a23.84,23.84,0,0,1,5.92,1.62l-3.58-1.51a26.61,26.61,0,0,1,5.48,3.26l-3-2.35a33.14,33.14,0,0,1,5.61,5.68l-2.35-3a42.44,42.44,0,0,1,5.25,9.18L603,495.4c2.55,6.11,4,12.59,5.35,19,.76,3.56,3.82,7.17,6.89,9a15.32,15.32,0,0,0,11.56,1.52c3.63-1.18,7.13-3.43,9-6.9a16.42,16.42,0,0,0,1.51-11.56c-1-4.69-2-9.4-3.49-14a64.23,64.23,0,0,0-7-15.64,59.69,59.69,0,0,0-5.88-7.55,50.24,50.24,0,0,0-7.28-6.14,38.71,38.71,0,0,0-8.45-4.32,37,37,0,0,0-9.91-2.16c-6-.72-12.36.26-18.33,1.21a46.09,46.09,0,0,0-16.17,5.71A49.18,49.18,0,0,0,548,475.2c-3.66,4.56-7.2,9.24-10.42,14.13a165.68,165.68,0,0,0-15.85,31.5,11.28,11.28,0,0,0-.27,6,11.11,11.11,0,0,0,1.78,5.58,15.27,15.27,0,0,0,9,6.89c3.83.88,8.15.69,11.55-1.51l3-2.34a15.11,15.11,0,0,0,3.86-6.62Z" transform="translate(-282.16 -260.65)"/><path d="M500,606.53a572.75,572.75,0,0,0-55.26,18.88q-9.36,3.75-18.61,7.77a16.77,16.77,0,0,0-6.9,9,15.32,15.32,0,0,0,1.52,11.55c2.06,3.21,5.14,6,9,6.9l4,.53a15,15,0,0,0,7.57-2l4.84-2.08-3.58,1.52q24.93-10.53,50.77-18.67,7.31-2.29,14.68-4.4a15.58,15.58,0,0,0,9-6.89A15.32,15.32,0,0,0,518.41,617c-1.17-3.63-3.42-7.13-6.89-9A15.54,15.54,0,0,0,500,606.53Z" transform="translate(-282.16 -260.65)"/><path d="M488.43,632q-25,13.15-49.64,26.91-7,3.92-14,7.86a15,15,0,0,0-5.38,20.53c2.06,3.2,5.14,6,9,6.89A15.84,15.84,0,0,0,440,692.7q24.56-13.94,49.45-27.26,7.06-3.78,14.16-7.51A15,15,0,0,0,509,637.4c-2.07-3.2-5.14-6-9-6.89A16.24,16.24,0,0,0,488.43,632Z" transform="translate(-282.16 -260.65)"/><path d="M498.09,638.36a120.45,120.45,0,0,1-17.3,16.1l3-2.35c-16.82,13-35.91,22.61-52.76,35.53a84.39,84.39,0,0,0-9.37,7.61,24.34,24.34,0,0,0-4.66,6.17,26.12,26.12,0,0,0-2.07,5.16,33.7,33.7,0,0,0-.6,4.35,9.53,9.53,0,0,0,0,1.51c.3,4,1.47,7.68,4.4,10.6a15.19,15.19,0,0,0,10.6,4.4c3.88-.18,7.91-1.45,10.61-4.4,2.58-2.8,4.69-6.66,4.39-10.6a8.47,8.47,0,0,1,0-1.51l-.54,4a8.24,8.24,0,0,1,.4-1.43l-1.51,3.59a10.91,10.91,0,0,1,1.35-2.31l-2.34,3a39.23,39.23,0,0,1,6.87-6.12l-3,2.34c9.16-7.08,19-13.18,28.81-19.34a301.58,301.58,0,0,0,31.08-21.76,115.13,115.13,0,0,0,13.86-13.36c2.63-3,4.39-6.48,4.39-10.61a15.24,15.24,0,0,0-4.39-10.6c-2.86-2.63-6.61-4.58-10.61-4.4-3.81.17-8,1.41-10.61,4.4Z" transform="translate(-282.16 -260.65)"/><path d="M589.73,602.3q30.84-.7,61.65-2.34t61.55-4.22q17.36-1.46,34.68-3.21a16.7,16.7,0,0,0,10.61-4.39,15.23,15.23,0,0,0,4.39-10.61c-.17-3.88-1.45-7.9-4.39-10.6-2.76-2.54-6.72-4.79-10.61-4.4q-30.69,3.11-61.47,5.28t-61.6,3.4q-17.4.69-34.81,1.09a15.63,15.63,0,0,0-10.61,4.39,15.23,15.23,0,0,0-4.39,10.61c.17,3.88,1.45,7.9,4.39,10.6a15.35,15.35,0,0,0,10.61,4.4Z" transform="translate(-282.16 -260.65)"/><path d="M594.46,643.83q30.87,3,61.86,4.69t62.26,1.86q17.49.12,35-.22a15.56,15.56,0,0,0,10.6-4.39,15.24,15.24,0,0,0,4.4-10.61c-.18-3.88-1.45-7.9-4.4-10.6a15.37,15.37,0,0,0-10.6-4.4q-31,.58-62-.24t-62.21-3.1q-17.45-1.26-34.86-3a16.64,16.64,0,0,0-10.6,4.39,15.2,15.2,0,0,0-4.4,10.61c.18,3.88,1.45,7.9,4.4,10.61l3,2.34a14.91,14.91,0,0,0,7.57,2.05Z" transform="translate(-282.16 -260.65)"/><path d="M590.73,675.65q27.72,7.27,55.86,12.77c20,3.89,40.11,7,60.31,9.63q16,2.06,32.1,3.53c3.62.33,8.13-1.91,10.61-4.39A15.27,15.27,0,0,0,754,686.58c-.17-3.88-1.45-7.9-4.39-10.61l-3-2.34a14.91,14.91,0,0,0-7.57-2q-18.62-1.71-37.16-4.19l4,.53q-42.23-5.68-83.79-15.4-11.7-2.74-23.33-5.8a15.59,15.59,0,0,0-11.56,1.51,15.27,15.27,0,0,0-6.89,9c-.88,3.84-.69,8.15,1.51,11.56a15.54,15.54,0,0,0,9,6.89Z" transform="translate(-282.16 -260.65)"/></svg>