<svg id="Layer_1" data-name="Layer 1" xmlns="http://www.w3.org/2000/svg" viewBox="0 0 503.76 507.91"><path d="M441.5,379.53c-24.25-.93-48.51,6.08-69.33,18.38s-37.81,29.73-51,49.74a204.64,204.64,0,0,0-28,65.51c-5.82,24.79-7,50.9-1.15,75.81,6,25.25,20.23,46.64,35.6,67.09,16.15,21.48,33.19,42.33,51.31,62.18a220.11,220.11,0,0,0,28,26.39,129.16,129.16,0,0,0,32.41,18c22.53,8.74,47.17,11.44,71.17,11.92a517.64,517.64,0,0,0,80.52-5.08c26-3.57,52.16-8.65,77.13-16.77a177.66,177.66,0,0,0,35.63-15.6,144.41,144.41,0,0,0,27.43-21.24c16.32-16,29.05-35.69,38-56.67,10.56-24.68,16.37-50.68,19.62-77.25,3-24.92,4-50.24,1.77-75.26C786.43,459.49,770,413,735.55,379.41c-15.53-15.13-34.18-27.07-54.83-33.85-25-8.21-51.44-6.59-77.34-7.06-6.74-.12-13.48-.45-20.2-1.06q-5.07-.45-10.14-1.08l-2.3-.29c-1.74-.21,2.13.3-.82-.11-1.84-.26-3.67-.52-5.51-.8-13.35-2.05-26.54-4.87-39.79-7.46-13.44-2.63-27.63-4.6-41-.6-12.89,3.85-23.86,12.81-34.83,20.27L415.4,370.06c-3.89,2.64-6,8-3.23,12.31,2.49,3.87,8.15,6.06,12.31,3.23l33.39-22.69c5.44-3.7,10.84-7.45,16.33-11.08,2.5-1.65,5-3.24,7.68-4.65a42.15,42.15,0,0,1,3.83-1.85c-1.39.57,0,0,.22-.05,1.1-.36,2.18-.75,3.3-1.06,1.38-.39,2.79-.65,4.19-1,2.64-.57-1,0,.59-.11.71-.07,1.42-.15,2.14-.2a67.22,67.22,0,0,1,9.52,0c1.46.11,2.91.27,4.36.42,2.87.29-1.75-.31,1.1.14l2.18.34c3.2.52,6.37,1.14,9.54,1.78,12.83,2.61,25.66,5.2,38.61,7.13a323.93,323.93,0,0,0,41,3.69c13,.27,26.12-.13,39.16.53,3,.15,6,.36,9,.65,1.5.14,3,.31,4.5.49,2.94.36-1.73-.3,1.2.17l2.68.43a118.11,118.11,0,0,1,15.88,3.84c2.34.75,4.65,1.56,6.94,2.45l1.3.52c.35.14,2.53,1.08.43.16,1.28.56,2.56,1.12,3.83,1.72a127.62,127.62,0,0,1,12.9,7q3.13,1.94,6.15,4c1,.67,1.91,1.36,2.85,2.05l1.41,1c1.45,1.07-1.14-.91.69.53a146.49,146.49,0,0,1,11.39,10q5.34,5.21,10.16,10.9c.76.9,1.52,1.81,2.27,2.73.44.56.88,1.12,1.33,1.67,1.45,1.8-.75-1,.12.15,1.64,2.18,3.26,4.37,4.81,6.62a168.14,168.14,0,0,1,14.63,26c.33.73.64,1.47,1,2.2,1.11,2.48-.36-.92.26.58s1.17,2.88,1.74,4.33q1.68,4.34,3.16,8.75c1.87,5.61,3.5,11.31,4.9,17.06s2.62,11.85,3.59,17.84c.25,1.54.47,3.07.7,4.61,0,.31.25,1.77,0,.13.11.84.22,1.69.32,2.53q.57,4.65,1,9.3a319.81,319.81,0,0,1,1,36.23c-.32,12.18-1.24,24.35-2.66,36.45q-.25,2.18-.54,4.35a7.78,7.78,0,0,1-.14,1.08c-.1.73-.2,1.45-.31,2.17q-.72,5-1.6,10-1.59,9-3.74,18t-5,17.67q-1.47,4.58-3.13,9.08c-.5,1.36-1,2.73-1.55,4.08l-.65,1.62c-.11.29-1.4,3.39-.76,1.89A183.38,183.38,0,0,1,738.37,679c-1.46,2.21-3,4.39-4.52,6.54-.74,1-1.51,2-2.26,3,1-1.39.24-.3,0,0-.63.79-1.25,1.58-1.89,2.36a151.49,151.49,0,0,1-10.63,11.74A159.61,159.61,0,0,1,707,713.31c-1.16.94,1.68-1.24-.27.2-.6.45-1.2.9-1.81,1.34-1,.74-2,1.47-3.07,2.18q-3.47,2.37-7.08,4.51a154.46,154.46,0,0,1-15.92,8.09c-2.56,1.14,1.61-.63-1,.42l-1.58.64c-1.45.58-2.9,1.14-4.37,1.69-3.07,1.14-6.16,2.2-9.28,3.21-11.69,3.75-23.65,6.69-35.64,9.3q-19.29,4.2-38.86,7l-1.25.17-1.82.24c-1.51.2-3,.39-4.55.57q-5.25.63-10.5,1.16-9.82,1-19.68,1.6c-12.55.79-25.15,1.17-37.72,1-5.82-.08-11.63-.3-17.43-.71-2.7-.18-5.39-.41-8.09-.68l-4-.45c-.81-.09-1.61-.19-2.41-.3,2,.26-.39,0-.82-.12a166.25,166.25,0,0,1-33.41-8.2c-1.24-.46-2.48-.94-3.71-1.43-.22-.09-2.64-1.12-.79-.32l-1.46-.64q-4-1.79-7.87-3.85a119,119,0,0,1-15.18-9.75c-1.41-1.05-.48-.36-.18-.13-.66-.52-1.32-1-2-1.57-1.09-.89-2.16-1.79-3.22-2.71-2.34-2-4.62-4.1-6.85-6.23-4.38-4.19-8.56-8.57-12.66-13-8.55-9.32-16.83-18.9-24.92-28.62q-6.22-7.49-12.27-15.11-3-3.74-5.87-7.49c-1.1-1.42-.49-.64-.25-.32l-1.66-2.16-3.28-4.32c-7.48-9.9-14.86-19.93-21.15-30.64a139.47,139.47,0,0,1-8.17-16c.71,1.67-.33-.86-.38-1l-.6-1.55c-.49-1.3-.95-2.6-1.4-3.91q-1.45-4.32-2.59-8.73t-1.94-8.88c-.25-1.36-.46-2.72-.68-4.08-.28-1.78-.07-.44,0-.07-.15-1.09-.28-2.19-.39-3.29a146.73,146.73,0,0,1-.8-17.41A162.44,162.44,0,0,1,307.41,535c0-.44.31-2.28.06-.52q.16-1.24.36-2.49.33-2.07.69-4.14.81-4.54,1.85-9,2-8.58,4.72-16.95,1.31-4,2.78-8c.5-1.34,1-2.67,1.54-4l.58-1.45c.1-.25,1.14-2.77.73-1.8-.51,1.23.49-1.12.47-1.08l.94-2.14c.54-1.19,1.08-2.37,1.64-3.54,1.22-2.59,2.49-5.15,3.83-7.67q3.81-7.25,8.25-14.12,2.22-3.42,4.59-6.74c.83-1.16,1.69-2.3,2.53-3.44.2-.27,1-1.35,0,0l1.93-2.43a154.25,154.25,0,0,1,10.89-12.1A150.74,150.74,0,0,1,368,422.37c2-1.65-1.42,1,.69-.53l1.59-1.19q1.77-1.27,3.57-2.51,3.6-2.46,7.37-4.69a133.23,133.23,0,0,1,14.83-7.54c-1.86.81.56-.22.78-.31l1.47-.58c1.23-.47,2.47-.93,3.71-1.36,2.86-1,5.76-1.89,8.68-2.68q4-1.07,8.07-1.85c1.29-.25,2.58-.48,3.88-.68l1.55-.24c-2.16.32.44,0,.74-.08a110,110,0,0,1,16.53-.6c4.71.19,9.22-4.27,9-9a9.19,9.19,0,0,0-9-9Z" transform="translate(-288.2 -266.7)"/><path d="M428,398.07a337.51,337.51,0,0,0-38.13-53.81q-5.94-6.86-12.24-13.36c-4.67-4.83-13.37-2.54-15,4Q355.54,362.32,349.4,390T338,445.51q-2.92,15.67-5.57,31.4a9.76,9.76,0,0,0,.9,6.93,9.21,9.21,0,0,0,5.38,4.14,9.09,9.09,0,0,0,6.94-.91c1.85-1.19,3.75-3.11,4.13-5.37q4.69-28,10.32-55.73t12.17-55.35q3.69-15.53,7.67-31l-15.05,4A326.81,326.81,0,0,1,388.63,371l-1.41-1.83a326.29,326.29,0,0,1,25.26,38c2.33,4.09,8.26,5.84,12.31,3.23A9.18,9.18,0,0,0,428,398.07Z" transform="translate(-288.2 -266.7)"/><path d="M580.53,401.26C594.81,379.14,609,357,623.37,334.9c3.69-5.65,7.48-11.24,11.6-16.58l-1.4,1.82a117.51,117.51,0,0,1,20.77-20.86l-1.82,1.41c8.27-6.38,17.19-11.83,26.11-17.26l-13.23-5.38q6.51,30.65,13.58,61.16t14.66,60.65q4.3,17.1,8.8,34.15c1.2,4.56,6.48,7.78,11.07,6.29a9.18,9.18,0,0,0,6.29-11.07q-8-30.28-15.38-60.73t-14.16-60.77q-3.84-17.21-7.5-34.46c-1.2-5.67-8.48-8.27-13.22-5.38a294.19,294.19,0,0,0-25,16.44,124.92,124.92,0,0,0-22.82,22c-6.66,8.44-12.52,17.4-18.34,26.42l-18,27.82L565,392.18a9.08,9.08,0,0,0,3.23,12.31,9.21,9.21,0,0,0,12.32-3.23Z" transform="translate(-288.2 -266.7)"/><path d="M529.23,621c-20.53-24.77-53.78-31.51-68.38-63.09,7.8-1.11,15.66-2.22,23.52-1.76,24.41,1.42,49.71-1.33,74.13-.11-5.32,21.78-14.13,50.56-26,69.57" transform="translate(-288.2 -266.7)"/><path d="M376.67,584.58a138.91,138.91,0,0,1,.59-31.83l-.33,2.4a125,125,0,0,1,8.26-31.49l-.91,2.15a54.77,54.77,0,0,1,6.63-11.65L389.5,516a38,38,0,0,1,6.42-6.5l-1.82,1.41a32.15,32.15,0,0,1,6.7-4l-2.15.91a26.84,26.84,0,0,1,6.71-1.85l-2.39.32a26.83,26.83,0,0,1,6.52.05L407.1,506A41.8,41.8,0,0,1,417.39,509l-2.15-.9c9.72,4.12,18.9,9.89,27.43,16.07,1.79,1.29,4.9,1.46,6.94.9a9.16,9.16,0,0,0,5.37-4.13,9.07,9.07,0,0,0,.91-6.94,10.35,10.35,0,0,0-4.13-5.38,144.8,144.8,0,0,0-27-15.89c-5.83-2.51-11.71-4.42-18.12-4.58a34.78,34.78,0,0,0-16.85,4.18c-9.36,4.87-16.28,13.76-20.52,23.25a125.92,125.92,0,0,0-9.2,31.58,146.53,146.53,0,0,0-1.39,37.47,9.67,9.67,0,0,0,2.64,6.37,9.14,9.14,0,0,0,6.36,2.63A9,9,0,0,0,374,591c1.53-1.66,2.87-4,2.64-6.37Z" transform="translate(-288.2 -266.7)"/><path d="M544.88,527.21c.59-1.51,1.19-3,1.83-4.52l-.91,2.15a147.87,147.87,0,0,1,19-32.41l-1.41,1.82a54.94,54.94,0,0,1,9.14-9.88l-1.82,1.41a26.17,26.17,0,0,1,5.57-3.21l-2.15.9a44.16,44.16,0,0,1,10.87-2.7l-2.39.32a50.32,50.32,0,0,1,12.62-.42l-2.39-.32a24.28,24.28,0,0,1,5.92,1.62l-2.15-.9a26.54,26.54,0,0,1,5.47,3.26l-1.82-1.41a33.14,33.14,0,0,1,5.61,5.68l-1.41-1.82a42.13,42.13,0,0,1,5.25,9.17l-.91-2.14c2.54,6.11,4,12.58,5.35,19,1,4.61,6.63,7.73,11.07,6.29a9.2,9.2,0,0,0,6.28-11.07c-2.08-9.69-4.39-19.8-9.93-28.19a44.41,44.41,0,0,0-11-11.54,32.21,32.21,0,0,0-15.34-5.66c-5.53-.68-11.27.12-16.74,1a40.79,40.79,0,0,0-14.73,5.11,44.89,44.89,0,0,0-11.45,10.67c-3.35,4.17-6.55,8.45-9.48,12.92a158,158,0,0,0-15.26,30.07c-.79,2.05-.16,5.11.91,6.93a9,9,0,0,0,12.32,3.23,10.37,10.37,0,0,0,4.13-5.38Z" transform="translate(-288.2 -266.7)"/><path d="M501.56,612.32A571.82,571.82,0,0,0,446.3,631.2q-8.66,3.45-17.18,7.16c-1.93.84-3.61,3.46-4.14,5.38a9.2,9.2,0,0,0,.91,6.94,9.06,9.06,0,0,0,5.38,4.13l2.39.32a8.85,8.85,0,0,0,4.54-1.23l4.84-2.07-2.15.91q24.93-10.51,50.77-18.66,7.32-2.31,14.68-4.41c4.52-1.29,7.79-6.41,6.29-11.07a9.15,9.15,0,0,0-11.07-6.28Z" transform="translate(-288.2 -266.7)"/><path d="M491.45,637.2q-25,13.15-49.63,26.92-7,3.9-14,7.85c-4.1,2.33-5.84,8.27-3.23,12.32a9.18,9.18,0,0,0,12.31,3.23q24.57-13.93,49.45-27.26,7.06-3.78,14.16-7.51a9.09,9.09,0,0,0,3.23-12.32,9.21,9.21,0,0,0-12.32-3.23Z" transform="translate(-288.2 -266.7)"/><path d="M502.34,642.6A121.05,121.05,0,0,1,485,658.7l1.82-1.41c-16.82,13-35.91,22.61-52.77,35.53a73.38,73.38,0,0,0-8.15,6.67c-3.32,3.4-6,8-5.61,13A9.6,9.6,0,0,0,423,718.8a9,9,0,0,0,12.73,0,8.88,8.88,0,0,0,2.63-6.36,8.47,8.47,0,0,1,0-1.51l-.32,2.4a8.62,8.62,0,0,1,.39-1.43l-.91,2.15a11.06,11.06,0,0,1,1.36-2.3l-1.4,1.82a38.88,38.88,0,0,1,6.87-6.12l-1.82,1.4c18.8-14.51,40.29-25.07,58.68-40.17a113.47,113.47,0,0,0,13.85-13.35A9.55,9.55,0,0,0,517.7,649a9.15,9.15,0,0,0-2.64-6.36,9,9,0,0,0-12.72,0Z" transform="translate(-288.2 -266.7)"/><path d="M589.73,596.3q30.84-.7,61.65-2.34t61.55-4.22q17.36-1.46,34.68-3.21A9.69,9.69,0,0,0,754,583.9a9,9,0,0,0,0-12.73c-1.65-1.52-4-2.87-6.36-2.64q-30.69,3.11-61.47,5.28t-61.6,3.4q-17.4.69-34.81,1.09c-4.71.1-9.22,4.06-9,9,.21,4.78,4,9.11,9,9Z" transform="translate(-288.2 -266.7)"/><path d="M594.46,637.83q30.87,3,61.86,4.69t62.26,1.86q17.49.12,35-.22c4.7-.08,9.22-4.07,9-9s-4-9.09-9-9q-31,.58-62-.24t-62.21-3.1q-17.45-1.26-34.86-3c-2.16-.22-4.88,1.16-6.36,2.63a9.19,9.19,0,0,0-2.64,6.37,9.09,9.09,0,0,0,2.64,6.36,10.19,10.19,0,0,0,6.36,2.64Z" transform="translate(-288.2 -266.7)"/><path d="M592.33,669.86q27.7,7.29,55.85,12.78c19.47,3.79,39.05,6.88,58.72,9.41q16,2.06,32.1,3.53a9,9,0,0,0,6.36-2.64,9,9,0,0,0,0-12.73,10.16,10.16,0,0,0-6.36-2.63q-18.62-1.71-37.16-4.19l2.4.32Q662,668,620.44,658.31q-11.7-2.74-23.33-5.8c-4.54-1.2-10,1.51-11.07,6.28s1.42,9.79,6.29,11.07Z" transform="translate(-288.2 -266.7)"/></svg>