<?xml version="1.0" encoding="utf-8"?>
<!-- Generator: Adobe Illustrator 25.2.0, SVG Export Plug-In . SVG Version: 6.00 Build 0)  -->
<svg version="1.1" id="Layer_1" xmlns="http://www.w3.org/2000/svg" xmlns:xlink="http://www.w3.org/1999/xlink" x="0px" y="0px"
	 viewBox="0 0 1208 288" style="enable-background:new 0 0 1208 288;" xml:space="preserve">
<style type="text/css">
	.st0{fill:#F9F2F2;}
</style>
<g>
	<path class="st0" d="M248.76,50.68C248.35,29,230.61,6.86,209.54,2.14c-22.1-4.95-43.2-1.88-63.28,8.37
		c-3.46,1.77-6.64,4.1-11.17,6.93c6.07,3.65,10.66,6.86,15.64,9.26c4.84,2.33,10.08,3.83,15.4,5.79
		c-17.43,7.15-28.16,5.63-41.48-6.22C104.07,7.96,80.47-1.52,52.59,0.01C21.18,1.74-0.51,24.5-0.05,55.96
		c0.32,21.71,5.63,42.3,14.5,62.01c5.61,12.46,11.3,24.89,17.18,37.22c9.69,20.34,13.58,41.88,13.62,64.24
		c0.03,19.1-0.12,38.2,0.04,57.3c0.03,3.36,1.17,6.7,1.8,10.05c0.61,0.27,1.21,0.54,1.82,0.81c2.62-2.59,6.2-4.73,7.67-7.86
		c4.46-9.47,8.76-19.11,11.91-29.07c5.13-16.19,9.09-32.74,13.94-49.02c3.77-12.66,11.21-22.53,23.73-27.87
		c24.22-10.34,50.13,0.17,58.81,24.94c5.95,16.99,9.6,34.77,15.21,51.89c3.51,10.73,8.5,21.01,13.41,31.21
		c1.05,2.19,4.61,3.17,7.01,4.7c0.89-2.38,2.46-4.74,2.54-7.16c0.42-12.08,0.9-24.18,0.54-36.25c-0.74-24.45-1.31-48.98,7.23-72.28
		c5.71-15.58,13.19-30.54,20.19-45.62C242.09,101.54,249.26,77.05,248.76,50.68z M174.54,146.79c-8.84,11.1-20.04,16.7-34.56,13.51
		c-0.83-0.18-1.64-0.44-2.45-0.7c-5.69-1.83-7.99-4.61-6.96-8.4c1.07-3.94,5.87-6.33,10.94-4.97c3.26,0.87,6.29,2.58,9.49,3.71
		c3.24,1.14,6.6,1.53,8.46-2.19c1.96-3.94,0.3-7.58-3.28-8.95c-3.63-1.39-7.87-1.3-11.86-1.53c-2.52-0.15-5.11,0.65-7.61,0.41
		c-4.77-0.46-6.33-4.11-3.62-8.02c2.62-3.78,6.56-5.07,10.79-4.35c5.68,0.97,11.22,2.69,16.86,3.93c3.12,0.69,6.46,1.84,9.43,1.3
		c1.97-0.36,3.47-3.33,5.18-5.13c-1.91-1.33-3.66-3.35-5.76-3.83c-3.43-0.78-7.13-0.35-10.65-0.86c-1.79-0.26-3.45-1.47-5.17-2.26
		c0.03-0.59,0.07-1.18,0.1-1.78c2.13-0.44,4.24-1.03,6.39-1.29c3.88-0.46,7.88-0.29,11.63-1.19c3.17-0.75,6.65-2.89,5.07-6.81
		c-1.65-4.12-5.29-2.57-8.31-1.14c-2.15,1.02-4.16,2.36-6.36,3.22c-0.9,0.35-2.61,0.2-3.1-0.41c-0.51-0.63-0.4-2.44,0.17-3.12
		c1.74-2.07,4.14-3.62,5.71-5.78c2.94-4.05,6.11-8.16,7.88-12.74c0.77-1.99-0.93-6.45-2.84-7.63c-3.23-2-5.67,1.2-6.99,4.04
		c-2.29,4.94-3.8,10.26-6.35,15.04c-2.2,4.12-5.14,7.94-8.27,11.43c-1.32,1.47-3.96,1.77-6.01,2.6c-0.43-0.44-0.87-0.88-1.3-1.33
		c0.99-2.35,1.83-4.77,3.01-7.02c1.84-3.51,2.68-6.84-1.24-9.41c-3.43-2.25-8.34-0.63-10.23,3.68c-1.27,2.91-1.55,6.24-2.42,9.34
		c-0.83,2.92-1.36,6.08-2.91,8.59c-2.52,4.06-6.71,3.47-8.67-0.83c-6.21-13.6,3.64-28.21,18.34-27.28c3.22,0.2,6.48,0.32,9.66-0.05
		c1.15-0.14,2.87-1.76,2.96-2.82c0.09-1.07-1.29-2.87-2.43-3.31c-2.34-0.89-5.03-0.84-7.4-1.65c-1.59-0.55-4.02-1.86-4.08-2.95
		c-0.09-1.62,1.18-3.87,2.58-4.89c2.14-1.56,4.85-2.37,7.38-3.35c1.42-0.55,3-0.68,4.42-1.23c2.75-1.06,6.23-2.54,4.63-5.91
		c-0.78-1.64-4.7-1.87-7.25-2.52c-0.7-0.18-1.62,0.4-2.41,0.7c-7.34,2.84-7.36,2.86-12.18-3.65c-2.21-2.98-4.99-4.42-8.34-2.31
		c-3.5,2.2-2.98,5.41-1.1,8.5c0.88,1.45,2.12,2.69,2.95,4.17c2.81,4.97,1.7,11.24-2.43,14.34c-4.34,3.26-12.92,2.59-17.16-1.33
		c-3.83-3.55-3.88-7.71,0.02-13.24c2.16-3.06,3.58-6.09-0.02-8.92c-2.67-2.1-6.17-0.4-8.56,3.88c-0.33,0.59-0.72,1.2-0.85,1.85
		c-1.33,6.45-4.85,9.59-11.8,8.67c-1.71-0.23-3.99,1.05-5.43,2.3c-2.6,2.28-1.74,5.74,1.6,6.72c1.9,0.56,4.03,0.51,6.04,0.42
		c7.89-0.37,16.64,4.51,19.57,11.51c0.73,1.76,0.79,4.6-0.18,6.03c-0.79,1.16-3.97,1.83-5.42,1.19c-3.83-1.69-7.23-4.32-10.91-6.36
		c-3.37-1.87-6.74-4.18-10.39-4.9c-2.35-0.46-5.73,0.97-7.72,2.65c-3.73,3.14-2.36,7.59,2.4,8.78c2.63,0.65,5.43,0.67,8.07,1.29
		c4.5,1.07,5.34,3.52,2.18,6.82c-2.7,2.82-5.94,5.12-8.77,7.82c-4.09,3.88-4.86,7.63-2.33,10.19c2.65,2.68,8.32,2.56,11.62-0.84
		c2.45-2.53,3.86-6.06,6.3-8.61c2.48-2.6,5.39-5.26,8.63-6.48c1.67-0.63,4.49,1.81,6.79,2.86c-1.16,1.81-2.34,3.61-3.47,5.43
		c-1.38,2.24-2.72,4.5-4.07,6.75c2.49,0.94,4.92,2.45,7.48,2.68c2.8,0.25,5.81-1.32,8.52-0.87c2.04,0.34,3.76,2.62,5.63,4.04
		c-1.58,1.75-3,4.75-4.77,4.97c-3.37,0.42-6.93-0.88-10.43-1.23c-4.65-0.47-9.44-1.52-13.96-0.85c-5.88,0.87-8.49,5.38-6.96,9.78
		c1.72,4.93,7.55,7.37,12.68,5.08c2.47-1.11,4.69-2.77,7.1-4.05c6.04-3.19,12.7-2.13,14.44,2.23c1.9,4.76-0.98,8.96-7.94,11.6
		c-12.43,4.72-28.76-0.4-37.81-12.35c-14.78-19.53-18.02-41.16-8.73-63.68c9.3-22.54,26.79-35.64,51.14-38.86
		c25.56-3.38,50.47,9.35,63.18,31.93C192.28,98.85,190.28,127.04,174.54,146.79z"/>
	<g>
		<g>
			<path class="st0" d="M342.02,127.58c-7.04,0-13.09-1.5-18.14-4.5c-5.05-3-8.93-7.16-11.63-12.5c-2.7-5.34-4.05-11.48-4.05-18.43
				c0-7.04,1.36-13.22,4.09-18.54c2.73-5.32,6.61-9.48,11.65-12.48c5.04-3,11.03-4.49,17.98-4.49c6,0,11.25,1.09,15.77,3.26
				c4.52,2.18,8.08,5.23,10.69,9.17c2.61,3.94,4.05,8.56,4.32,13.87h-17.98c-0.51-3.43-1.84-6.19-4-8.3
				c-2.16-2.1-4.99-3.15-8.48-3.15c-4.41,0-7.96,1.77-10.65,5.32c-2.68,3.55-4.03,8.57-4.03,15.07c0,6.56,1.34,11.64,4,15.23
				s6.23,5.39,10.67,5.39c3.28,0,6.04-0.99,8.28-2.97c2.23-1.99,3.64-4.81,4.2-8.48h17.98c-0.3,5.25-1.72,9.87-4.27,13.87
				c-2.55,4-6.06,7.11-10.53,9.33C353.42,126.47,348.13,127.58,342.02,127.58z"/>
			<path class="st0" d="M416,127.58c-6.95,0-12.95-1.48-18.01-4.45c-5.05-2.97-8.95-7.11-11.7-12.43
				c-2.74-5.32-4.11-11.5-4.11-18.54c0-7.1,1.37-13.31,4.11-18.63c2.74-5.32,6.64-9.47,11.7-12.44c5.06-2.97,11.06-4.45,18.01-4.45
				c6.95,0,12.95,1.48,18,4.45c5.05,2.97,8.95,7.11,11.7,12.44c2.74,5.32,4.11,11.53,4.11,18.63c0,7.04-1.37,13.22-4.11,18.54
				c-2.74,5.32-6.64,9.47-11.7,12.43C428.95,126.09,422.95,127.58,416,127.58z M416.09,112.82c4.71,0,8.28-1.97,10.71-5.9
				c2.43-3.94,3.65-8.9,3.65-14.89c0-5.99-1.22-10.97-3.65-14.92c-2.43-3.95-6-5.93-10.71-5.93c-4.8,0-8.43,1.98-10.87,5.93
				c-2.45,3.95-3.67,8.93-3.67,14.92c0,5.99,1.22,10.96,3.67,14.89C407.67,110.85,411.29,112.82,416.09,112.82z"/>
			<path class="st0" d="M462.25,126.23v-68.7h18.48v11.99h0.71c1.25-4.26,3.35-7.49,6.29-9.68c2.94-2.19,6.34-3.29,10.22-3.29
				c1.85,0,3.56,0.22,5.14,0.67c1.58,0.45,3,1.06,4.25,1.83l-5.73,15.75c-0.89-0.45-1.87-0.83-2.93-1.14
				c-1.06-0.31-2.24-0.47-3.56-0.47c-3.85,0-7.1,1.32-9.77,3.94c-2.67,2.62-4.02,6.04-4.05,10.24v38.87H462.25z"/>
			<path class="st0" d="M533.92,127.53c-6.56,0-12-1.72-16.33-5.15c-4.32-3.43-6.49-8.54-6.49-15.34c0-5.13,1.21-9.15,3.62-12.08
				c2.42-2.92,5.58-5.06,9.51-6.42c3.92-1.36,8.15-2.24,12.68-2.66c5.97-0.59,10.23-1.22,12.79-1.88c2.57-0.65,3.85-2.08,3.85-4.29
				v-0.27c0-2.83-0.89-5.02-2.66-6.57c-1.77-1.55-4.28-2.33-7.54-2.33c-3.43,0-6.16,0.74-8.18,2.24c-2.03,1.49-3.37,3.38-4.03,5.68
				l-17.62-1.43c1.31-6.26,4.57-11.23,9.77-14.89c5.2-3.67,11.92-5.5,20.15-5.5c5.1,0,9.87,0.8,14.31,2.42
				c4.44,1.61,8.03,4.12,10.76,7.54c2.73,3.41,4.09,7.85,4.09,13.31v46.34h-18.07v-9.53H554c-1.67,3.19-4.17,5.79-7.49,7.8
				S538.99,127.53,533.92,127.53z M539.37,114.38c4.18,0,7.61-1.21,10.29-3.65c2.69-2.43,4.03-5.45,4.03-9.06v-7.29
				c-0.74,0.51-1.9,0.95-3.46,1.34c-1.57,0.39-3.24,0.72-5.01,1.01c-1.78,0.28-3.36,0.53-4.76,0.74c-3.34,0.47-6.03,1.41-8.07,2.82
				c-2.04,1.4-3.07,3.44-3.07,6.13c0,2.62,0.95,4.61,2.84,5.95S536.45,114.38,539.37,114.38z"/>
			<path class="st0" d="M606.47,34.63v91.61h-19.06V34.63H606.47z"/>
			<path class="st0" d="M681.92,127.58c-7.04,0-13.09-1.5-18.14-4.5c-5.05-3-8.93-7.16-11.63-12.5c-2.7-5.34-4.05-11.48-4.05-18.43
				c0-7.04,1.36-13.22,4.09-18.54c2.73-5.32,6.61-9.48,11.65-12.48c5.04-3,11.03-4.49,17.98-4.49c6,0,11.25,1.09,15.77,3.26
				c4.52,2.18,8.08,5.23,10.69,9.17c2.61,3.94,4.05,8.56,4.32,13.87h-17.98c-0.51-3.43-1.84-6.19-4-8.3
				c-2.16-2.1-4.99-3.15-8.48-3.15c-4.41,0-7.96,1.77-10.65,5.32c-2.68,3.55-4.03,8.57-4.03,15.07c0,6.56,1.34,11.64,4,15.23
				s6.23,5.39,10.67,5.39c3.28,0,6.04-0.99,8.28-2.97c2.23-1.99,3.64-4.81,4.2-8.48h17.98c-0.3,5.25-1.72,9.87-4.27,13.87
				c-2.55,4-6.06,7.11-10.53,9.33C693.33,126.47,688.04,127.58,681.92,127.58z"/>
			<path class="st0" d="M755.91,127.58c-6.95,0-12.95-1.48-18.01-4.45c-5.05-2.97-8.95-7.11-11.7-12.43
				c-2.74-5.32-4.11-11.5-4.11-18.54c0-7.1,1.37-13.31,4.11-18.63c2.74-5.32,6.64-9.47,11.7-12.44c5.06-2.97,11.06-4.45,18.01-4.45
				c6.95,0,12.95,1.48,18,4.45c5.05,2.97,8.95,7.11,11.7,12.44c2.74,5.32,4.11,11.53,4.11,18.63c0,7.04-1.37,13.22-4.11,18.54
				c-2.74,5.32-6.64,9.47-11.7,12.43C768.86,126.09,762.86,127.58,755.91,127.58z M756,112.82c4.71,0,8.28-1.97,10.71-5.9
				c2.43-3.94,3.65-8.9,3.65-14.89c0-5.99-1.22-10.97-3.65-14.92c-2.43-3.95-6-5.93-10.71-5.93c-4.8,0-8.43,1.98-10.87,5.93
				c-2.45,3.95-3.67,8.93-3.67,14.92c0,5.99,1.22,10.96,3.67,14.89C747.57,110.85,751.2,112.82,756,112.82z"/>
			<path class="st0" d="M859.33,77.12l-17.45,1.08c-0.48-2.21-1.68-4.1-3.62-5.68c-1.94-1.58-4.56-2.37-7.87-2.37
				c-2.95,0-5.45,0.62-7.49,1.86c-2.04,1.24-3.05,2.88-3.02,4.94c-0.03,1.64,0.62,3.03,1.95,4.16c1.33,1.13,3.58,2.04,6.78,2.73
				l12.43,2.5c13.21,2.71,19.83,8.92,19.86,18.61c0,4.5-1.32,8.45-3.96,11.85c-2.64,3.4-6.25,6.05-10.85,7.94
				c-4.59,1.89-9.86,2.84-15.79,2.84c-9.1,0-16.34-1.9-21.74-5.7c-5.4-3.8-8.54-8.98-9.44-15.54l18.74-0.98
				c0.6,2.8,1.98,4.92,4.14,6.35c2.16,1.43,4.94,2.15,8.34,2.15c3.34,0,6.03-0.66,8.07-1.97c2.04-1.31,3.08-2.98,3.11-5.01
				c-0.09-3.4-3.02-5.68-8.81-6.84l-11.9-2.37c-13.3-2.65-19.92-9.2-19.86-19.64c-0.03-6.62,2.62-11.84,7.94-15.66
				c5.32-3.82,12.38-5.72,21.18-5.72c8.68,0,15.51,1.83,20.51,5.5C855.58,65.8,858.49,70.8,859.33,77.12z"/>
			<path class="st0" d="M872.93,126.23v-68.7h18.16v12.12h0.81c1.43-4.06,3.82-7.24,7.18-9.55c3.36-2.31,7.34-3.46,11.97-3.46
				c4.71,0,8.72,1.17,12.03,3.51c3.31,2.34,5.52,5.51,6.62,9.51h0.71c1.4-3.94,3.94-7.09,7.63-9.46c3.68-2.37,8.04-3.56,13.08-3.56
				c6.41,0,11.62,2.03,15.64,6.11c4.01,4.07,6.01,9.83,6.01,17.29v46.21h-19.01V83.79c0-3.82-1.01-6.68-3.04-8.59
				c-2.03-1.91-4.57-2.86-7.61-2.86c-3.46,0-6.16,1.1-8.09,3.31c-1.94,2.21-2.91,5.08-2.91,8.63v41.96h-18.48V83.38
				c0-3.37-0.96-6.05-2.88-8.05c-1.92-2-4.45-3-7.58-3c-3.16,0-5.82,1.15-7.96,3.46c-2.15,2.31-3.22,5.37-3.22,9.19v41.24H872.93z"
				/>
			<path class="st0" d="M1019.1,127.58c-7.04,0-13.11-1.44-18.21-4.32c-5.1-2.88-9.02-6.96-11.76-12.26
				c-2.74-5.29-4.11-11.56-4.11-18.81c0-7.07,1.37-13.27,4.11-18.61c2.74-5.34,6.61-9.5,11.61-12.48c5-2.98,10.86-4.47,17.6-4.47
				c6.05,0,11.52,1.28,16.39,3.85c4.88,2.56,8.75,6.43,11.61,11.61c2.86,5.17,4.3,11.65,4.3,19.44v5.23h-46.79v0.04
				c0,5.13,1.4,9.17,4.21,12.12c2.8,2.95,6.59,4.43,11.36,4.43c3.19,0,5.95-0.67,8.28-2.01c2.32-1.34,3.96-3.32,4.92-5.95
				l17.62,1.16c-1.34,6.38-4.74,11.48-10.2,15.3C1034.58,125.67,1027.6,127.58,1019.1,127.58z M1003.85,84.95h28.85
				c-0.03-4.08-1.34-7.45-3.94-10.11c-2.6-2.65-5.97-3.98-10.11-3.98c-4.23,0-7.71,1.37-10.42,4.11
				C1005.52,77.72,1004.06,81.04,1003.85,84.95z"/>
			<path class="st0" d="M1099.62,57.53v14.31h-12.93v33.28c0,2.62,0.6,4.4,1.79,5.32c1.19,0.93,2.74,1.39,4.65,1.39
				c0.89,0,1.79-0.08,2.68-0.25s1.58-0.29,2.06-0.38l3,14.18c-0.95,0.3-2.3,0.65-4.03,1.05c-1.73,0.4-3.83,0.65-6.31,0.74
				c-6.92,0.3-12.47-1.2-16.66-4.49c-4.19-3.3-6.27-8.31-6.24-15.06V71.84h-9.39V57.53h9.39V41.07h19.05v16.46H1099.62z"/>
			<path class="st0" d="M1121.59,48.67c-2.81,0-5.22-0.95-7.25-2.84c-2.03-1.89-3.04-4.17-3.04-6.82s1.01-4.92,3.04-6.8
				c2.03-1.88,4.44-2.82,7.25-2.82c2.83,0,5.26,0.94,7.29,2.82c2.03,1.88,3.04,4.14,3.04,6.8s-1.01,4.93-3.04,6.82
				C1126.85,47.73,1124.42,48.67,1121.59,48.67z M1112.01,126.23v-68.7h19.06v68.7H1112.01z"/>
			<path class="st0" d="M1177.32,127.58c-7.04,0-13.09-1.5-18.14-4.5c-5.05-3-8.93-7.16-11.63-12.5c-2.7-5.34-4.05-11.48-4.05-18.43
				c0-7.04,1.36-13.22,4.09-18.54c2.73-5.32,6.61-9.48,11.65-12.48c5.04-3,11.03-4.49,17.98-4.49c6,0,11.25,1.09,15.77,3.26
				c4.52,2.18,8.08,5.23,10.69,9.17c2.61,3.94,4.05,8.56,4.32,13.87h-17.98c-0.51-3.43-1.84-6.19-4-8.3
				c-2.16-2.1-4.99-3.15-8.48-3.15c-4.41,0-7.96,1.77-10.65,5.32c-2.68,3.55-4.03,8.57-4.03,15.07c0,6.56,1.34,11.64,4,15.23
				c2.67,3.59,6.23,5.39,10.67,5.39c3.28,0,6.04-0.99,8.28-2.97c2.23-1.99,3.64-4.81,4.2-8.48H1208c-0.3,5.25-1.72,9.87-4.27,13.87
				c-2.55,4-6.06,7.11-10.53,9.33C1188.72,126.47,1183.43,127.58,1177.32,127.58z"/>
		</g>
		<g>
			<path class="st0" d="M341.18,175.41l-4.86,1.37c-0.72-2.07-1.9-3.81-3.55-5.23c-1.65-1.42-4.01-2.13-7.1-2.13
				s-5.62,0.73-7.62,2.21c-2,1.47-3,3.37-3,5.7c0,1.99,0.68,3.59,2.04,4.8c1.36,1.21,3.46,2.18,6.31,2.89l6.92,1.7
				c7.67,1.89,11.51,5.91,11.51,12.08c0,2.59-0.71,4.88-2.15,6.89c-1.43,2.01-3.42,3.58-5.98,4.73c-2.55,1.14-5.51,1.72-8.87,1.72
				c-4.49,0-8.19-1.01-11.08-3.03c-2.89-2.02-4.75-4.94-5.56-8.75l5.1-1.25c1.3,5.5,5.11,8.26,11.45,8.26
				c3.52,0,6.33-0.79,8.44-2.37c2.1-1.58,3.16-3.56,3.16-5.95c0-3.8-2.49-6.28-7.46-7.46l-7.49-1.79c-3.97-0.95-6.92-2.47-8.83-4.53
				c-1.91-2.07-2.86-4.63-2.86-7.69c0-2.53,0.69-4.75,2.06-6.67c1.37-1.92,3.26-3.42,5.67-4.52c2.4-1.09,5.15-1.64,8.23-1.64
				c4.2,0,7.55,0.95,10.07,2.85C338.26,169.48,340.07,172.09,341.18,175.41z"/>
			<path class="st0" d="M380.39,212.12c-4.27,0-7.98-1-11.09-3c-3.12-2-5.53-4.77-7.23-8.32c-1.7-3.55-2.55-7.64-2.55-12.27
				c0-4.63,0.85-8.74,2.55-12.31c1.7-3.58,4.06-6.39,7.07-8.43c3.01-2.04,6.5-3.05,10.45-3.05c3.32,0,6.45,0.81,9.41,2.43
				c2.95,1.62,5.35,4.09,7.2,7.41c1.85,3.32,2.77,7.53,2.77,12.64v2.62h-34.11c0.12,5.29,1.57,9.51,4.35,12.67
				c2.78,3.16,6.51,4.74,11.18,4.74c3.26,0,5.92-0.74,7.99-2.22c2.07-1.48,3.54-3.25,4.41-5.29l5.04,1.64
				c-1.04,2.88-3.05,5.39-6.05,7.53C388.78,211.05,384.98,212.12,380.39,212.12z M364.88,185.16h28.66c0-2.94-0.59-5.59-1.77-7.95
				c-1.18-2.35-2.82-4.22-4.92-5.59c-2.1-1.37-4.52-2.06-7.26-2.06c-2.78,0-5.25,0.7-7.38,2.12c-2.14,1.41-3.84,3.3-5.12,5.67
				C365.81,179.71,365.08,182.32,364.88,185.16z"/>
			<path class="st0" d="M419.02,211.16v-45.8h5.16v7.04h0.39c0.94-2.31,2.54-4.17,4.8-5.59c2.27-1.42,4.84-2.13,7.73-2.13
				c0.44,0,0.92,0.01,1.46,0.03c0.54,0.02,0.98,0.04,1.34,0.06v5.4c-0.24-0.04-0.66-0.1-1.25-0.18c-0.59-0.08-1.24-0.12-1.94-0.12
				c-3.58,0-6.54,1.1-8.87,3.31c-2.34,2.21-3.51,5.01-3.51,8.41v29.58H419.02z"/>
			<path class="st0" d="M494.25,165.36l-16.73,45.8h-5.67l-16.73-45.8h5.76l13.6,38.8h0.42l13.6-38.8H494.25z"/>
			<path class="st0" d="M518.63,157.49c-1.1,0-2.03-0.38-2.81-1.13c-0.78-0.76-1.16-1.65-1.16-2.69c0-1.05,0.39-1.95,1.16-2.7
				c0.78-0.74,1.71-1.12,2.81-1.12c1.09,0,2.03,0.37,2.82,1.12c0.79,0.74,1.18,1.65,1.18,2.7c0,1.04-0.39,1.93-1.18,2.69
				C520.66,157.11,519.72,157.49,518.63,157.49z M515.92,211.16v-45.8h5.34v45.8H515.92z"/>
			<path class="st0" d="M561.62,212.12c-4.09,0-7.66-1.03-10.71-3.07c-3.04-2.05-5.39-4.85-7.05-8.41
				c-1.66-3.56-2.49-7.62-2.49-12.17c0-4.59,0.85-8.68,2.55-12.26c1.7-3.58,4.06-6.39,7.08-8.43c3.02-2.04,6.53-3.05,10.53-3.05
				c3.06,0,5.84,0.59,8.33,1.79c2.49,1.19,4.55,2.85,6.16,4.98c1.61,2.13,2.62,4.61,3.04,7.46h-5.37c-0.56-2.6-1.89-4.82-4.01-6.65
				c-2.12-1.83-4.81-2.74-8.07-2.74c-2.92,0-5.5,0.79-7.75,2.37c-2.24,1.58-4,3.78-5.26,6.59c-1.26,2.82-1.89,6.07-1.89,9.77
				c0,3.72,0.62,7,1.86,9.86s2.98,5.08,5.22,6.69c2.24,1.61,4.85,2.42,7.83,2.42c3.04,0,5.67-0.84,7.87-2.54
				c2.21-1.69,3.62-3.99,4.24-6.92h5.36c-0.4,2.76-1.38,5.22-2.94,7.38c-1.56,2.16-3.58,3.85-6.05,5.08
				C567.63,211.5,564.8,212.12,561.62,212.12z"/>
			<path class="st0" d="M617.37,212.12c-4.27,0-7.98-1-11.09-3c-3.12-2-5.53-4.77-7.23-8.32c-1.7-3.55-2.55-7.64-2.55-12.27
				c0-4.63,0.85-8.74,2.55-12.31c1.7-3.58,4.06-6.39,7.07-8.43c3.01-2.04,6.5-3.05,10.45-3.05c3.32,0,6.45,0.81,9.41,2.43
				c2.95,1.62,5.35,4.09,7.2,7.41c1.85,3.32,2.77,7.53,2.77,12.64v2.62h-34.11c0.12,5.29,1.57,9.51,4.35,12.67
				c2.78,3.16,6.51,4.74,11.18,4.74c3.26,0,5.92-0.74,7.99-2.22c2.07-1.48,3.54-3.25,4.41-5.29l5.04,1.64
				c-1.04,2.88-3.05,5.39-6.05,7.53C625.76,211.05,621.97,212.12,617.37,212.12z M601.87,185.16h28.66c0-2.94-0.59-5.59-1.77-7.95
				c-1.18-2.35-2.82-4.22-4.92-5.59c-2.1-1.37-4.52-2.06-7.26-2.06c-2.78,0-5.24,0.7-7.38,2.12c-2.14,1.41-3.84,3.3-5.12,5.67
				C602.8,179.71,602.06,182.32,601.87,185.16z"/>
			<path class="st0" d="M686.78,175.41l-4.86,1.37c-0.72-2.07-1.9-3.81-3.55-5.23c-1.65-1.42-4.01-2.13-7.1-2.13
				s-5.62,0.73-7.62,2.21c-2,1.47-3,3.37-3,5.7c0,1.99,0.68,3.59,2.04,4.8c1.36,1.21,3.46,2.18,6.31,2.89l6.92,1.7
				c7.67,1.89,11.51,5.91,11.51,12.08c0,2.59-0.71,4.88-2.15,6.89c-1.43,2.01-3.42,3.58-5.98,4.73c-2.55,1.14-5.51,1.72-8.87,1.72
				c-4.49,0-8.19-1.01-11.08-3.03c-2.89-2.02-4.75-4.94-5.56-8.75l5.1-1.25c1.29,5.5,5.11,8.26,11.45,8.26
				c3.52,0,6.33-0.79,8.44-2.37c2.1-1.58,3.16-3.56,3.16-5.95c0-3.8-2.49-6.28-7.46-7.46l-7.49-1.79c-3.97-0.95-6.92-2.47-8.83-4.53
				s-2.86-4.63-2.86-7.69c0-2.53,0.69-4.75,2.06-6.67c1.37-1.92,3.26-3.42,5.67-4.52c2.4-1.09,5.15-1.64,8.23-1.64
				c4.2,0,7.55,0.95,10.07,2.85C683.86,169.48,685.67,172.09,686.78,175.41z"/>
		</g>
	</g>
</g>
</svg>
